<?xml version="1.0" standalone="no"?>
<!DOCTYPE svg PUBLIC "-//W3C//DTD SVG 20010904//EN"
 "http://www.w3.org/TR/2001/REC-SVG-20010904/DTD/svg10.dtd">
<svg version="1.0" xmlns="http://www.w3.org/2000/svg"
 width="261.000000pt" height="261.000000pt" viewBox="0 0 261.000000 261.000000"
 preserveAspectRatio="xMidYMid meet">
<metadata>
Created by potrace 1.11, written by Peter Selinger 2001-2013
</metadata>
<g transform="translate(0.000000,261.000000) scale(0.100000,-0.100000)"
fill="#000000" stroke="none">
<path d="M862 2303 c-23 -9 -44 -64 -38 -99 10 -50 47 -74 117 -74 l59 0 0
-50 0 -50 -180 0 c-117 0 -188 -4 -205 -12 -42 -19 -55 -56 -55 -158 l0 -90
-105 0 c-99 0 -107 -2 -130 -25 -24 -23 -25 -30 -25 -150 l0 -125 -85 0 -85 0
0 144 c0 128 -2 146 -20 169 -22 27 -61 41 -91 32 -18 -6 -19 -23 -19 -566 l0
-559 40 0 c30 0 47 7 65 25 24 23 25 28 25 175 l0 151 83 -3 82 -3 3 -126 c4
-170 1 -167 182 -171 l135 -3 162 -200 c90 -110 171 -206 180 -212 13 -10 139
-13 548 -13 l532 0 21 23 c17 18 22 37 24 102 l3 80 40 0 40 0 3 -80 c3 -88
20 -118 70 -128 42 -8 66 7 223 141 l149 127 -1 395 0 395 -145 110 c-80 61
-158 115 -172 122 -33 14 -70 7 -99 -20 -21 -18 -23 -30 -23 -109 l0 -88 -50
0 -50 0 0 88 c0 82 -2 90 -26 113 -23 22 -36 24 -130 27 l-104 4 0 174 c0 255
1 254 -231 254 l-150 0 3 43 3 42 63 5 c51 4 68 10 83 29 28 34 25 96 -6 126
l-24 25 -338 -1 c-186 0 -344 -3 -351 -6z"/>
</g>
</svg>
