<?xml version="1.0" encoding="iso-8859-1"?>
<!-- Generator: Adobe Illustrator 18.0.0, SVG Export Plug-In . SVG Version: 6.00 Build 0)  -->
<!DOCTYPE svg PUBLIC "-//W3C//DTD SVG 1.1//EN" "http://www.w3.org/Graphics/SVG/1.1/DTD/svg11.dtd">
<svg version="1.1" id="Capa_1" xmlns="http://www.w3.org/2000/svg" xmlns:xlink="http://www.w3.org/1999/xlink" x="0px" y="0px"
	 viewBox="0 0 190.307 190.307" style="enable-background:new 0 0 190.307 190.307;" xml:space="preserve">
<g>
	<path d="M156.147,70.694c-3.705-1.854-8.21-0.351-10.062,3.354l-23.079,46.157H98.021c-2.841,0-5.438,1.605-6.708,4.146
		l-25.151,50.302c-1.853,3.705-0.351,8.21,3.354,10.062c1.077,0.539,2.221,0.793,3.348,0.793c2.751,0,5.4-1.52,6.714-4.147
		l23.079-46.156h24.985c2.841,0,5.438-1.605,6.708-4.146l25.151-50.303C161.353,77.051,159.852,72.546,156.147,70.694z"/>
	<path d="M165.264,4.798c-13.832,0-25.045,11.212-25.045,25.044c0,13.831,11.213,25.043,25.045,25.043
		c13.83,0,25.043-11.212,25.043-25.043C190.307,16.01,179.094,4.798,165.264,4.798z M165.264,39.885
		c-5.539,0-10.045-4.505-10.045-10.043c0-5.538,4.506-10.044,10.045-10.044c5.538,0,10.043,4.506,10.043,10.044
		C175.307,35.38,170.801,39.885,165.264,39.885z"/>
	<path d="M59.157,37.342h19.269v2.361c0,2.452,1.199,4.75,3.21,6.152c1.276,0.89,2.776,1.348,4.291,1.348
		c0.873,0,1.751-0.152,2.592-0.462l26.768-9.861c2.948-1.086,4.907-3.895,4.907-7.038c0-3.142-1.959-5.951-4.907-7.038
		l-26.768-9.863c-2.299-0.848-4.872-0.518-6.882,0.885c-2.012,1.403-3.21,3.7-3.21,6.152v2.363H59.157c-4.142,0-7.5,3.358-7.5,7.5
		C51.657,33.985,55.015,37.342,59.157,37.342z"/>
	<path d="M61.73,126.094l-20.634-19.058c-1.802-1.664-4.302-2.343-6.698-1.816c-2.395,0.526-4.382,2.189-5.32,4.455l-0.904,2.183
		l-17.802-7.374c-3.825-1.584-8.214,0.232-9.799,4.059c-1.585,3.827,0.232,8.214,4.059,9.799l17.803,7.374l-0.904,2.182
		c-0.938,2.266-0.71,4.847,0.612,6.912c1.321,2.065,3.569,3.355,6.02,3.452l28.505,1.134c0.1,0.004,0.2,0.006,0.3,0.006
		c0.007,0,0.015,0,0.023,0c4.14-0.002,7.496-3.359,7.496-7.5C64.485,129.561,63.412,127.47,61.73,126.094z"/>
</g>
<g>
</g>
<g>
</g>
<g>
</g>
<g>
</g>
<g>
</g>
<g>
</g>
<g>
</g>
<g>
</g>
<g>
</g>
<g>
</g>
<g>
</g>
<g>
</g>
<g>
</g>
<g>
</g>
<g>
</g>
</svg>
